# 3ds Max Wavefront OBJ Exporter v0.97b - (c)2007 guruware
# File Created: 03.12.2009 13:43:32

mtllib Material.mtl

#
# object Box01
#

v  -11.8406 -6.3184 -8.7206
v   11.8406 -6.3184 -8.7206
v   11.8406 -6.3184  8.7206
v  -11.8406 -6.3184  8.7206
v   11.8406  6.3184  8.7206
v   11.8406  6.3184 -8.7206
v  -11.8406  6.3184 -8.7206
v  -11.8406  6.3184  8.7206
# 8 vertices

vn 0.0000 -1.0000 -0.0000
vn 0.0000 1.0000 -0.0000
vn 0.0000 0.0000 1.0000
vn 1.0000 0.0000 -0.0000
vn 0.0000 0.0000 -1.0000
vn -1.0000 0.0000 -0.0000
# 6 vertex normals

vt 0.2101 0.5000 0.0000
vt 0.6037 0.5000 0.0000
vt 0.6037 0.7899 0.0000
vt 0.2101 0.7899 0.0000
vt 0.6037 0.0000 0.0000
vt 0.6037 0.2899 0.0000
vt 0.2101 0.2899 0.0000
vt 0.2101 0.0000 0.0000
vt 0.6037 1.0000 0.0000
vt 0.2101 1.0000 0.0000
vt 0.8138 0.5000 0.0000
vt 0.8138 0.7899 0.0000
vt 0.0000 0.7899 0.0000
vt 0.0000 0.5000 0.0000
# 14 texture coords

g Box01
usemtl box
s 2
f 1/1/1 2/2/1 3/3/1 
f 3/3/1 4/4/1 1/1/1 
s 4
f 5/5/2 6/6/2 7/7/2 
f 7/7/2 8/8/2 5/5/2 
s 8
f 3/3/3 5/9/3 8/10/3 
f 8/10/3 4/4/3 3/3/3 
s 16
f 2/2/4 6/11/4 5/12/4 
f 5/12/4 3/3/4 2/2/4 
s 32
f 1/1/5 7/7/5 6/6/5 
f 6/6/5 2/2/5 1/1/5 
s 64
f 4/4/6 8/13/6 7/14/6 
f 7/14/6 1/1/6 4/4/6 
# 12 faces

